<?xml version="1.0" encoding="UTF-8" standalone="no"?>
<!-- Created with Inkscape (http://www.inkscape.org/) -->

<svg
   xmlns:dc="http://purl.org/dc/elements/1.1/"
   xmlns:cc="http://creativecommons.org/ns#"
   xmlns:rdf="http://www.w3.org/1999/02/22-rdf-syntax-ns#"
   xmlns:svg="http://www.w3.org/2000/svg"
   xmlns="http://www.w3.org/2000/svg"
   xmlns:sodipodi="http://sodipodi.sourceforge.net/DTD/sodipodi-0.dtd"
   xmlns:inkscape="http://www.inkscape.org/namespaces/inkscape"
   width="2160"
   height="1080"
   id="svg2"
   version="1.1"
   inkscape:version="0.47 r22583"
   sodipodi:docname="New document 1">
  <defs
     id="defs4">
    <inkscape:perspective
       sodipodi:type="inkscape:persp3d"
       inkscape:vp_x="0 : 526.18109 : 1"
       inkscape:vp_y="0 : 1000 : 0"
       inkscape:vp_z="744.09448 : 526.18109 : 1"
       inkscape:persp3d-origin="372.04724 : 350.78739 : 1"
       id="perspective10" />
    <inkscape:perspective
       id="perspective2938"
       inkscape:persp3d-origin="198.77953 : 61.653544 : 1"
       inkscape:vp_z="397.55905 : 92.480316 : 1"
       inkscape:vp_y="0 : 1000 : 0"
       inkscape:vp_x="0 : 92.480316 : 1"
       sodipodi:type="inkscape:persp3d" />
    <inkscape:perspective
       id="perspective3068"
       inkscape:persp3d-origin="198.77953 : 47.185038 : 1"
       inkscape:vp_z="397.55905 : 70.777557 : 1"
       inkscape:vp_y="0 : 1000 : 0"
       inkscape:vp_x="0 : 70.777557 : 1"
       sodipodi:type="inkscape:persp3d" />
    <inkscape:perspective
       id="perspective3194"
       inkscape:persp3d-origin="198.77953 : 61.653544 : 1"
       inkscape:vp_z="397.55905 : 92.480316 : 1"
       inkscape:vp_y="0 : 1000 : 0"
       inkscape:vp_x="0 : 92.480316 : 1"
       sodipodi:type="inkscape:persp3d" />
  </defs>
  <sodipodi:namedview
     id="base"
     pagecolor="#ffffff"
     bordercolor="#666666"
     borderopacity="1.0"
     inkscape:pageopacity="0.0"
     inkscape:pageshadow="2"
     inkscape:zoom="0.98994949"
     inkscape:cx="531.73835"
     inkscape:cy="762.43661"
     inkscape:document-units="px"
     inkscape:current-layer="layer1"
     showgrid="false"
     units="in"
     inkscape:window-width="1680"
     inkscape:window-height="975"
     inkscape:window-x="0"
     inkscape:window-y="24"
     inkscape:window-maximized="1" />
  <metadata
     id="metadata7">
    <rdf:RDF>
      <cc:Work
         rdf:about="">
        <dc:format>image/svg+xml</dc:format>
        <dc:type
           rdf:resource="http://purl.org/dc/dcmitype/StillImage" />
        <dc:title></dc:title>
      </cc:Work>
    </rdf:RDF>
  </metadata>
  <g
     inkscape:label="Layer 1"
     inkscape:groupmode="layer"
     id="layer1"
     transform="translate(0,27.64025)">
    <g
       id="g3207">
      <g
         transform="matrix(3.5433071,0,0,-3.5433071,214.55256,78.647893)"
         id="g2901">
        <path
           id="Sketch"
           d="m -52.5,25 105,0 A 2.5,2.5 0 0 0 55,22.5 l 0,-45 A 2.5,2.5 0 0 0 52.5,-25 l -105,0 a 2.5,2.5 0 0 0 -2.5,2.5 l 0,45 a 2.5,2.5 0 0 0 2.5,2.5"
           style="fill:none;stroke:#000000;stroke-width:0.34999999;stroke-miterlimit:4;stroke-dasharray:none" />
        <circle
           d="m -50.027,21.5 c 0,0.813515 -0.659485,1.473 -1.473,1.473 -0.813515,0 -1.473,-0.659485 -1.473,-1.473 0,-0.813515 0.659485,-1.473 1.473,-1.473 0.813515,0 1.473,0.659485 1.473,1.473 z"
           sodipodi:ry="1.473"
           sodipodi:rx="1.473"
           sodipodi:cy="21.5"
           sodipodi:cx="-51.5"
           cx="-51.5"
           cy="21.5"
           r="1.473"
           style="fill:none;stroke:#000000;stroke-width:0.34999999;stroke-miterlimit:4;stroke-dasharray:none"
           id="circle2904" />
        <circle
           d="m 52.973,21.5 c 0,0.813515 -0.659485,1.473 -1.473,1.473 -0.813515,0 -1.473,-0.659485 -1.473,-1.473 0,-0.813515 0.659485,-1.473 1.473,-1.473 0.813515,0 1.473,0.659485 1.473,1.473 z"
           sodipodi:ry="1.473"
           sodipodi:rx="1.473"
           sodipodi:cy="21.5"
           sodipodi:cx="51.5"
           cx="51.5"
           cy="21.5"
           r="1.473"
           style="fill:none;stroke:#000000;stroke-width:0.34999999;stroke-miterlimit:4;stroke-dasharray:none"
           id="circle2906" />
        <circle
           d="m -50.027,-21.5 c 0,0.813515 -0.659485,1.473 -1.473,1.473 -0.813515,0 -1.473,-0.659485 -1.473,-1.473 0,-0.813515 0.659485,-1.473 1.473,-1.473 0.813515,0 1.473,0.659485 1.473,1.473 z"
           sodipodi:ry="1.473"
           sodipodi:rx="1.473"
           sodipodi:cy="-21.5"
           sodipodi:cx="-51.5"
           cx="-51.5"
           cy="-21.5"
           r="1.473"
           style="fill:none;stroke:#000000;stroke-width:0.34999999;stroke-miterlimit:4;stroke-dasharray:none"
           id="circle2908" />
        <circle
           d="m 52.973,-21.5 c 0,0.813515 -0.659485,1.473 -1.473,1.473 -0.813515,0 -1.473,-0.659485 -1.473,-1.473 0,-0.813515 0.659485,-1.473 1.473,-1.473 0.813515,0 1.473,0.659485 1.473,1.473 z"
           sodipodi:ry="1.473"
           sodipodi:rx="1.473"
           sodipodi:cy="-21.5"
           sodipodi:cx="51.5"
           cx="51.5"
           cy="-21.5"
           r="1.473"
           style="fill:none;stroke:#000000;stroke-width:0.34999999;stroke-miterlimit:4;stroke-dasharray:none"
           id="circle2910" />
        <path
           id="path2912"
           d="m -38.6,16.15 12.4,0 0,-12.4 -12.4,0 0,12.4"
           style="fill:none;stroke:#000000;stroke-width:0.34999999;stroke-miterlimit:4;stroke-dasharray:none" />
        <path
           id="path2914"
           d="m -6.2,16.15 12.4,0 0,-12.4 -12.4,0 0,12.4"
           style="fill:none;stroke:#000000;stroke-width:0.34999999;stroke-miterlimit:4;stroke-dasharray:none" />
        <path
           id="path2916"
           d="m 26.2,16.15 12.4,0 0,-12.4 -12.4,0 0,12.4"
           style="fill:none;stroke:#000000;stroke-width:0.34999999;stroke-miterlimit:4;stroke-dasharray:none" />
        <path
           id="path2918"
           d="m -6.2,-3.75 12.4,0 0,-12.4 -12.4,0 0,12.4"
           style="fill:none;stroke:#000000;stroke-width:0.34999999;stroke-miterlimit:4;stroke-dasharray:none" />
        <path
           id="path2920"
           d="m -38.6,-3.75 12.4,0 0,-12.4 -12.4,0 0,12.4"
           style="fill:none;stroke:#000000;stroke-width:0.34999999;stroke-miterlimit:4;stroke-dasharray:none" />
        <path
           id="path2922"
           d="m 26.2,-3.75 12.4,0 0,-12.4 -12.4,0 0,12.4"
           style="fill:none;stroke:#000000;stroke-width:0.34999999;stroke-miterlimit:4;stroke-dasharray:none" />
        <path
           id="path2924"
           d="m -50,3.75 7.5,0 0,-7.5 -7.5,0 0,7.5"
           style="fill:none;stroke:#000000;stroke-width:0.34999999;stroke-miterlimit:4;stroke-dasharray:none" />
        <path
           id="path2926"
           d="m -17.5,3.75 7.5,0 0,-7.5 -7.5,0 0,7.5"
           style="fill:none;stroke:#000000;stroke-width:0.34999999;stroke-miterlimit:4;stroke-dasharray:none" />
        <path
           id="path2928"
           d="m 10,3.75 7.5,0 0,-7.5 -7.5,0 0,7.5"
           style="fill:none;stroke:#000000;stroke-width:0.34999999;stroke-miterlimit:4;stroke-dasharray:none" />
        <path
           id="path2930"
           d="m 42.5,3.75 7.5,0 0,-7.5 -7.5,0 0,7.5"
           style="fill:none;stroke:#000000;stroke-width:0.34999999;stroke-miterlimit:4;stroke-dasharray:none" />
      </g>
      <g
         transform="matrix(0,-3.543307,-3.543307,0,89.7143,369.505)"
         id="g3053">
        <path
           id="Sketch-3"
           d="m -55,15.875 5,0 0,3 7.5,0 0,-3 25,0 0,3 7.5,0 0,-3 20,0 0,3 7.5,0 0,-3 25,0 0,3 7.5,0 0,-3 5,0 0,-31.75 -5,0 0,-3 -7.5,0 0,3 -25,0 0,-3 -7.5,0 0,3 -20,0 0,-3 -7.5,0 0,3 -25,0 0,-3 -7.5,0 0,3 -5,0 0,31.75"
           style="fill:none;stroke:#000000;stroke-width:0.34999999;stroke-miterlimit:4;stroke-dasharray:none" />
        <circle
           d="m -28.430001,-5.875 c 0,2.1925705 -1.77743,3.97 -3.970001,3.97 -2.19257,0 -3.97,-1.7774295 -3.97,-3.97 0,-2.1925705 1.77743,-3.97 3.97,-3.97 2.192571,0 3.970001,1.7774295 3.970001,3.97 z"
           sodipodi:ry="3.97"
           sodipodi:rx="3.97"
           sodipodi:cy="-5.875"
           sodipodi:cx="-32.400002"
           cx="-32.400002"
           cy="-5.875"
           r="3.97"
           style="fill:none;stroke:#000000;stroke-width:0.34999999;stroke-miterlimit:4;stroke-dasharray:none"
           id="circle3056" />
        <circle
           d="m 3.97,-5.875 c 0,2.1925705 -1.7774295,3.97 -3.97,3.97 -2.1925705,0 -3.97,-1.7774295 -3.97,-3.97 0,-2.1925705 1.7774295,-3.97 3.97,-3.97 2.1925705,0 3.97,1.7774295 3.97,3.97 z"
           sodipodi:ry="3.97"
           sodipodi:rx="3.97"
           sodipodi:cy="-5.875"
           sodipodi:cx="0"
           cx="0"
           cy="-5.875"
           r="3.97"
           style="fill:none;stroke:#000000;stroke-width:0.34999999;stroke-miterlimit:4;stroke-dasharray:none"
           id="circle3058" />
        <circle
           d="m 36.370002,-5.875 c 0,2.1925705 -1.77743,3.97 -3.97,3.97 -2.192571,0 -3.970001,-1.7774295 -3.970001,-3.97 0,-2.1925705 1.77743,-3.97 3.970001,-3.97 2.19257,0 3.97,1.7774295 3.97,3.97 z"
           sodipodi:ry="3.97"
           sodipodi:rx="3.97"
           sodipodi:cy="-5.875"
           sodipodi:cx="32.400002"
           cx="32.400002"
           cy="-5.875"
           r="3.97"
           style="fill:none;stroke:#000000;stroke-width:0.34999999;stroke-miterlimit:4;stroke-dasharray:none"
           id="circle3060" />
      </g>
      <g
         transform="matrix(0,-3.5433071,-3.5433071,0,258.00004,370.64785)"
         id="g3169">
        <path
           id="Sketch-7"
           d="m -52.5,25 105,0 A 2.5,2.5 0 0 0 55,22.5 l 0,-45 A 2.5,2.5 0 0 0 52.5,-25 l -105,0 a 2.5,2.5 0 0 0 -2.5,2.5 l 0,45 a 2.5,2.5 0 0 0 2.5,2.5"
           style="fill:none;stroke:#000000;stroke-width:0.34999999;stroke-miterlimit:4;stroke-dasharray:none" />
        <circle
           d="m -50.027,21.5 c 0,0.813515 -0.659485,1.473 -1.473,1.473 -0.813515,0 -1.473,-0.659485 -1.473,-1.473 0,-0.813515 0.659485,-1.473 1.473,-1.473 0.813515,0 1.473,0.659485 1.473,1.473 z"
           sodipodi:ry="1.473"
           sodipodi:rx="1.473"
           sodipodi:cy="21.5"
           sodipodi:cx="-51.5"
           cx="-51.5"
           cy="21.5"
           r="1.473"
           style="fill:none;stroke:#000000;stroke-width:0.34999999;stroke-miterlimit:4;stroke-dasharray:none"
           id="circle3172" />
        <circle
           d="m 52.973,21.5 c 0,0.813515 -0.659485,1.473 -1.473,1.473 -0.813515,0 -1.473,-0.659485 -1.473,-1.473 0,-0.813515 0.659485,-1.473 1.473,-1.473 0.813515,0 1.473,0.659485 1.473,1.473 z"
           sodipodi:ry="1.473"
           sodipodi:rx="1.473"
           sodipodi:cy="21.5"
           sodipodi:cx="51.5"
           cx="51.5"
           cy="21.5"
           r="1.473"
           style="fill:none;stroke:#000000;stroke-width:0.34999999;stroke-miterlimit:4;stroke-dasharray:none"
           id="circle3174" />
        <circle
           d="m -50.027,-21.5 c 0,0.813515 -0.659485,1.473 -1.473,1.473 -0.813515,0 -1.473,-0.659485 -1.473,-1.473 0,-0.813515 0.659485,-1.473 1.473,-1.473 0.813515,0 1.473,0.659485 1.473,1.473 z"
           sodipodi:ry="1.473"
           sodipodi:rx="1.473"
           sodipodi:cy="-21.5"
           sodipodi:cx="-51.5"
           cx="-51.5"
           cy="-21.5"
           r="1.473"
           style="fill:none;stroke:#000000;stroke-width:0.34999999;stroke-miterlimit:4;stroke-dasharray:none"
           id="circle3176" />
        <circle
           d="m 52.973,-21.5 c 0,0.813515 -0.659485,1.473 -1.473,1.473 -0.813515,0 -1.473,-0.659485 -1.473,-1.473 0,-0.813515 0.659485,-1.473 1.473,-1.473 0.813515,0 1.473,0.659485 1.473,1.473 z"
           sodipodi:ry="1.473"
           sodipodi:rx="1.473"
           sodipodi:cy="-21.5"
           sodipodi:cx="51.5"
           cx="51.5"
           cy="-21.5"
           r="1.473"
           style="fill:none;stroke:#000000;stroke-width:0.34999999;stroke-miterlimit:4;stroke-dasharray:none"
           id="circle3178" />
        <path
           id="path3180"
           d="m -50,3.75 7.5,0 0,-7.5 -7.5,0 0,7.5"
           style="fill:none;stroke:#000000;stroke-width:0.34999999;stroke-miterlimit:4;stroke-dasharray:none" />
        <path
           id="path3182"
           d="m -17.5,3.75 7.5,0 0,-7.5 -7.5,0 0,7.5"
           style="fill:none;stroke:#000000;stroke-width:0.34999999;stroke-miterlimit:4;stroke-dasharray:none" />
        <path
           id="path3184"
           d="m 10,3.75 7.5,0 0,-7.5 -7.5,0 0,7.5"
           style="fill:none;stroke:#000000;stroke-width:0.34999999;stroke-miterlimit:4;stroke-dasharray:none" />
        <path
           id="path3186"
           d="m 42.5,3.75 7.5,0 0,-7.5 -7.5,0 0,7.5"
           style="fill:none;stroke:#000000;stroke-width:0.34999999;stroke-miterlimit:4;stroke-dasharray:none" />
      </g>
    </g>
  </g>
</svg>
