<?xml version="1.0"?>
<!DOCTYPE svg PUBLIC "-//W3C//DTD SVG 1.1//EN" "http://www.w3.org/Graphics/SVG/1.1/DTD/svg11.dtd">
<svg width="112.2mm" height="39.95mm" viewBox="0 0 112.2 39.95" xmlns="http://www.w3.org/2000/svg" version="1.1">
<g transform="translate(56.1,21.075) scale(1,-1)">
<path id="Sketch" d="M -55.0 15.875 L -50.0 15.875 L -50.0 18.875 L -42.5 18.875 L -42.5 15.875 L -17.5 15.875 L -17.5 18.875 L -10.0 18.875 L -10.0 15.875 L 10.0 15.875 L 10.0 18.875 L 17.5 18.875 L 17.5 15.875 L 42.5 15.875 L 42.5 18.875 L 50.0 18.875 L 50.0 15.875 L 55.0 15.875 L 55.0 -15.875 L 50.0 -15.875 L 50.0 -18.875 L 42.5 -18.875 L 42.5 -15.875 L 17.5 -15.875 L 17.5 -18.875 L 10.0 -18.875 L 10.0 -15.875 L -10.0 -15.875 L -10.0 -18.875 L -17.5 -18.875 L -17.5 -15.875 L -42.5 -15.875 L -42.5 -18.875 L -50.0 -18.875 L -50.0 -15.875 L -55.0 -15.875 L -55.0 15.875 " stroke="#000000" stroke-width="0.35 px" style="stroke-width:0.35;stroke-miterlimit:4;stroke-dasharray:none;fill:none"/>
</g>
</svg>