<?xml version="1.0"?>
<!DOCTYPE svg PUBLIC "-//W3C//DTD SVG 1.1//EN" "http://www.w3.org/Graphics/SVG/1.1/DTD/svg11.dtd">
<svg width="112.2mm" height="52.2mm" viewBox="0 0 112.2 52.2" xmlns="http://www.w3.org/2000/svg" version="1.1">
<g transform="translate(56.1,27.2) scale(1,-1)">
<path id="Sketch" d="M -52.5 25.0 L 52.5 25.0 A 2.5 2.5 0 0 0 55.0 22.5 L 55.0 -22.5 A 2.5 2.5 0 0 0 52.5 -25.0 L -52.5 -25.0 A 2.5 2.5 0 0 0 -55.0 -22.5 L -55.0 22.5 A 2.5 2.5 0 0 0 -52.5 25.0 " stroke="#000000" stroke-width="0.35 px" style="stroke-width:0.35;stroke-miterlimit:4;stroke-dasharray:none;fill:none"/>
<circle cx="-51.5" cy="21.5" r="1.473" stroke="#000000" stroke-width="0.35 px" style="stroke-width:0.35;stroke-miterlimit:4;stroke-dasharray:none;fill:none"/>
<circle cx="51.5" cy="21.5" r="1.473" stroke="#000000" stroke-width="0.35 px" style="stroke-width:0.35;stroke-miterlimit:4;stroke-dasharray:none;fill:none"/>
<circle cx="-51.5" cy="-21.5" r="1.473" stroke="#000000" stroke-width="0.35 px" style="stroke-width:0.35;stroke-miterlimit:4;stroke-dasharray:none;fill:none"/>
<circle cx="51.5" cy="-21.5" r="1.473" stroke="#000000" stroke-width="0.35 px" style="stroke-width:0.35;stroke-miterlimit:4;stroke-dasharray:none;fill:none"/>
<path id="Sketch" d="M -38.6 16.15 L -26.2 16.15 L -26.2 3.75 L -38.6 3.75 L -38.6 16.15 " stroke="#000000" stroke-width="0.35 px" style="stroke-width:0.35;stroke-miterlimit:4;stroke-dasharray:none;fill:none"/>
<path id="Sketch" d="M -6.2 16.15 L 6.2 16.15 L 6.2 3.75 L -6.2 3.75 L -6.2 16.15 " stroke="#000000" stroke-width="0.35 px" style="stroke-width:0.35;stroke-miterlimit:4;stroke-dasharray:none;fill:none"/>
<path id="Sketch" d="M 26.2 16.15 L 38.6 16.15 L 38.6 3.75 L 26.2 3.75 L 26.2 16.15 " stroke="#000000" stroke-width="0.35 px" style="stroke-width:0.35;stroke-miterlimit:4;stroke-dasharray:none;fill:none"/>
<path id="Sketch" d="M -6.2 -3.75 L 6.2 -3.75 L 6.2 -16.15 L -6.2 -16.15 L -6.2 -3.75 " stroke="#000000" stroke-width="0.35 px" style="stroke-width:0.35;stroke-miterlimit:4;stroke-dasharray:none;fill:none"/>
<path id="Sketch" d="M -38.6 -3.75 L -26.2 -3.75 L -26.2 -16.15 L -38.6 -16.15 L -38.6 -3.75 " stroke="#000000" stroke-width="0.35 px" style="stroke-width:0.35;stroke-miterlimit:4;stroke-dasharray:none;fill:none"/>
<path id="Sketch" d="M 26.2 -3.75 L 38.6 -3.75 L 38.6 -16.15 L 26.2 -16.15 L 26.2 -3.75 " stroke="#000000" stroke-width="0.35 px" style="stroke-width:0.35;stroke-miterlimit:4;stroke-dasharray:none;fill:none"/>
<path id="Sketch" d="M -50.0 3.75 L -42.5 3.75 L -42.5 -3.75 L -50.0 -3.75 L -50.0 3.75 " stroke="#000000" stroke-width="0.35 px" style="stroke-width:0.35;stroke-miterlimit:4;stroke-dasharray:none;fill:none"/>
<path id="Sketch" d="M -17.5 3.75 L -10.0 3.75 L -10.0 -3.75 L -17.5 -3.75 L -17.5 3.75 " stroke="#000000" stroke-width="0.35 px" style="stroke-width:0.35;stroke-miterlimit:4;stroke-dasharray:none;fill:none"/>
<path id="Sketch" d="M 10.0 3.75 L 17.5 3.75 L 17.5 -3.75 L 10.0 -3.75 L 10.0 3.75 " stroke="#000000" stroke-width="0.35 px" style="stroke-width:0.35;stroke-miterlimit:4;stroke-dasharray:none;fill:none"/>
<path id="Sketch" d="M 42.5 3.75 L 50.0 3.75 L 50.0 -3.75 L 42.5 -3.75 L 42.5 3.75 " stroke="#000000" stroke-width="0.35 px" style="stroke-width:0.35;stroke-miterlimit:4;stroke-dasharray:none;fill:none"/>
</g>
</svg>